# xmcd
#
# Track frame offsets: 
#        150
#        40560
#        80130
#        114464
#        157976
#        172825
#        203651
#        221585
#
# Disc length: 4732 seconds
#
# Revision: 2
# Processed by: cddbd v1.5.2PL0 Copyright (c) Steve Scherf et al.
# Submitted via: ExactAudioCopy v1.3
#
DISCID=5d127a08
DTITLE=Royal Concertgebouw Orchestra - RCO 125 anniversary edition - Th
DTITLE=e Radio Legacy, CD 145 [2000-2010]
DYEAR=2013
DGENRE=Classical
TTITLE0=Ferruccio Busoni: Berceuse élégiaque, op. 42 BV 252a (1909)
TTITLE1=Serge Prokofiev: Осеннее (Esquisse automnale) (1910 - rev. 1915
TTITLE1=, 1934 ), op. 8
TTITLE2=Gustav Mahler: Das Lied von der Erde (1908-1909) - I. Das Trin
TTITLE2=klied vom Jammer der Erde. Allegro pesante. Ganze Takte nicht 
TTITLE2=Schnell
TTITLE3=Gustav Mahler: Das Lied von der Erde (1908-1909) - II. Der Ein
TTITLE3=same im Herbst. Etwas Schleichend. Ermudet
TTITLE4=Gustav Mahler: Das Lied von der Erde (1908-1909) - III. Von de
TTITLE4=r Jugend. Behaglich heiter
TTITLE5=Gustav Mahler: Das Lied von der Erde (1908-1909) - IV. Von der
TTITLE5=Schönheit. Comodo. Dolcissimo
TTITLE6=Gustav Mahler: Das Lied von der Erde (1908-1909) - V. Der Trun
TTITLE6=kene im Frühling. Allegro. Keck, aber nicht zu Schnell
TTITLE7=Gustav Mahler: Das Lied von der Erde (1908-1909) - VI. Der Abs
TTITLE7=chied. Schwer
EXTD=
EXTT0=
EXTT1=
EXTT2=
EXTT3=
EXTT4=
EXTT5=
EXTT6=
EXTT7=
PLAYORDER=
